<?xml version="1.0" encoding="UTF-8"?>
<svg xmlns="http://www.w3.org/2000/svg" width="960" height="540" viewBox="0 0 960 540">
  <defs>
    <linearGradient id="bg" x1="0" y1="0" x2="0" y2="1">
      <stop offset="0%" stop-color="#e8f6fc"/>
      <stop offset="55%" stop-color="#f8fafc"/>
    </linearGradient>
  </defs>
  <rect width="960" height="540" fill="url(#bg)"/>
  <rect x="0" y="0" width="960" height="88" fill="#ffffff" stroke="#e2e8f0"/>
  <text x="24" y="30" font-size="16" font-weight="700" font-family="Segoe UI,Arial,sans-serif" fill="#0f172a">Paper Crypto Coach</text>
  <text x="900" y="30" text-anchor="end" font-size="12" font-family="Segoe UI,Arial,sans-serif" fill="#64748b">Paper only</text>
  <rect x="16" y="52" width="88" height="28" rx="6" fill="#f1f5f9" stroke="#d0d7e2"/>
    <text x="60" y="70" text-anchor="middle" font-size="11" font-family="Segoe UI,Arial,sans-serif" fill="#64748b">Dashboard</text>
<rect x="110" y="52" width="88" height="28" rx="6" fill="#f1f5f9" stroke="#d0d7e2"/>
    <text x="154" y="70" text-anchor="middle" font-size="11" font-family="Segoe UI,Arial,sans-serif" fill="#64748b">Market</text>
<rect x="204" y="52" width="88" height="28" rx="6" fill="#f1f5f9" stroke="#d0d7e2"/>
    <text x="248" y="70" text-anchor="middle" font-size="11" font-family="Segoe UI,Arial,sans-serif" fill="#64748b">Desk</text>
<rect x="298" y="52" width="88" height="28" rx="6" fill="#f1f5f9" stroke="#d0d7e2"/>
    <text x="342" y="70" text-anchor="middle" font-size="11" font-family="Segoe UI,Arial,sans-serif" fill="#64748b">Portfolio</text>
<rect x="392" y="52" width="88" height="28" rx="6" fill="#f1f5f9" stroke="#d0d7e2"/>
    <text x="436" y="70" text-anchor="middle" font-size="11" font-family="Segoe UI,Arial,sans-serif" fill="#64748b">History</text>
<rect x="486" y="52" width="88" height="28" rx="6" fill="#f1f5f9" stroke="#d0d7e2"/>
    <text x="530" y="70" text-anchor="middle" font-size="11" font-family="Segoe UI,Arial,sans-serif" fill="#64748b">Journal</text>
<rect x="580" y="52" width="88" height="28" rx="6" fill="#f1f5f9" stroke="#d0d7e2"/>
    <text x="624" y="70" text-anchor="middle" font-size="11" font-family="Segoe UI,Arial,sans-serif" fill="#64748b">Coach</text>
<rect x="674" y="52" width="88" height="28" rx="6" fill="#d6eef8" stroke="#0b7ea8"/>
    <text x="718" y="70" text-anchor="middle" font-size="11" font-family="Segoe UI,Arial,sans-serif" fill="#086484">Lab</text>
<rect x="768" y="52" width="88" height="28" rx="6" fill="#f1f5f9" stroke="#d0d7e2"/>
    <text x="812" y="70" text-anchor="middle" font-size="11" font-family="Segoe UI,Arial,sans-serif" fill="#64748b">Analytics</text>
<rect x="862" y="52" width="88" height="28" rx="6" fill="#f1f5f9" stroke="#d0d7e2"/>
    <text x="906" y="70" text-anchor="middle" font-size="11" font-family="Segoe UI,Arial,sans-serif" fill="#64748b">Settings</text>
  <text x="24" y="120" font-size="22" font-weight="700" font-family="Segoe UI,Arial,sans-serif" fill="#0f172a">Lab</text>
  <text x="24" y="148" font-size="13" fill="#64748b" font-family="Segoe UI,Arial,sans-serif">Turn a rule idea into an immutable paper-research version.</text>
     <rect x="24" y="168" width="912" height="54" rx="10" fill="#eff6ff" stroke="#bfdbfe"/>
     <text x="40" y="200" font-size="13" fill="#1e40af" font-family="Segoe UI,Arial,sans-serif">Flow: Prompt → Generate → Backtest (0.80% fees) → Save paper profile (Pro) → AUTO</text>
     <rect x="24" y="240" width="440" height="220" rx="12" fill="#fff" stroke="#dbe3ee"/>
     <text x="44" y="270" font-size="14" font-weight="600" fill="#0f172a" font-family="Segoe UI,Arial,sans-serif">Describe a hypothesis</text>
     <rect x="44" y="288" width="400" height="100" rx="8" fill="#f8fafc" stroke="#d0d7e2"/>
     <text x="58" y="318" font-size="12" fill="#334155" font-family="Segoe UI,Arial,sans-serif">BTCUSDT 15m: EMA9 &gt; EMA21, 1h &gt; EMA200,</text>
     <text x="58" y="338" font-size="12" fill="#334155" font-family="Segoe UI,Arial,sans-serif">volume &gt; 1.5x, RSI 50–70, stop 1 ATR, 2R</text>
     <rect x="44" y="408" width="220" height="36" rx="8" fill="#0b7ea8"/><text x="154" y="431" text-anchor="middle" font-size="13" fill="#fff" font-family="Segoe UI,Arial,sans-serif">Generate testable version</text>
     <rect x="488" y="240" width="448" height="220" rx="12" fill="#fff" stroke="#dbe3ee"/>
     <text x="508" y="270" font-size="14" font-weight="600" fill="#0f172a" font-family="Segoe UI,Arial,sans-serif">EMA Cross v2</text>
     <text x="780" y="270" font-size="11" fill="#64748b" font-family="Segoe UI,Arial,sans-serif">Parsed by rules</text>
     <text x="508" y="304" font-size="12" fill="#64748b" font-family="Segoe UI,Arial,sans-serif">Verdict: REJECT common · fees 0.80%/fill</text>
     <rect x="508" y="328" width="120" height="34" rx="8" fill="#0b7ea8"/><text x="568" y="350" text-anchor="middle" font-size="12" fill="#fff" font-family="Segoe UI,Arial,sans-serif">Backtest</text>
     <rect x="640" y="328" width="160" height="34" rx="8" fill="#fff" stroke="#0b7ea8"/><text x="720" y="350" text-anchor="middle" font-size="12" fill="#0b7ea8" font-family="Segoe UI,Arial,sans-serif">Save (Pro)</text>
     <text x="508" y="400" font-size="12" fill="#059669" font-family="Segoe UI,Arial,sans-serif">Promoted profiles · private to your account</text>
  <text x="24" y="525" font-size="11" font-family="Segoe UI,Arial,sans-serif" fill="#94a3b8">UI illustration · Paper Crypto Coach User Guide</text>
</svg>